<svg width="344" height="171" viewBox="0 0 344 171" fill="none" xmlns="http://www.w3.org/2000/svg">
<path fill-rule="evenodd" clip-rule="evenodd" d="M173.3 0.0149704C178.282 0.0249506 183.383 0.0848321 184.654 0.144714C185.924 0.204595 187.925 0.294417 189.105 0.354299C190.285 0.41418 192.336 0.523963 193.656 0.613785C194.977 0.693627 197.227 0.843331 198.658 0.963093C200.088 1.07288 202.449 1.27248 203.909 1.40222C205.37 1.54195 207.42 1.74155 208.461 1.85134C209.501 1.9711 211.822 2.24056 213.612 2.46013C215.403 2.66972 218.284 3.05894 220.014 3.30845C221.745 3.55796 225.005 4.06695 227.266 4.4462C229.527 4.82545 232.678 5.38434 234.268 5.69373C235.859 6.00312 238.229 6.48217 239.52 6.75163C240.81 7.03108 243.041 7.52011 244.471 7.84946C245.902 8.17881 248.222 8.7377 249.623 9.08701C251.023 9.43632 253.504 10.085 255.124 10.5341C256.745 10.9733 259.355 11.7218 260.926 12.1909C262.496 12.6599 265.507 13.618 267.628 14.3266C269.749 15.0253 272.609 16.0133 273.98 16.5223C275.36 17.0313 277.651 17.8996 279.081 18.4684C280.512 19.0373 282.652 19.9056 283.833 20.4146C285.013 20.9136 286.974 21.7819 288.184 22.3308C289.394 22.8797 291.645 23.9476 293.185 24.7061C294.726 25.4646 297.046 26.6622 298.337 27.3608C299.627 28.0595 301.608 29.1673 302.738 29.826C303.868 30.4847 305.579 31.5126 306.539 32.1214C307.5 32.7202 309.17 33.8081 310.24 34.5267C311.311 35.2552 312.801 36.2832 313.541 36.8221C314.281 37.361 315.542 38.3092 316.332 38.918C317.132 39.5268 318.503 40.6246 319.383 41.3631C320.273 42.1017 321.644 43.2893 322.434 44.0079C323.234 44.7265 324.654 46.0838 325.585 47.0219C326.525 47.9501 327.875 49.3673 328.586 50.1657C329.296 50.9541 330.286 52.1019 330.776 52.7007C331.276 53.2995 332.157 54.4273 332.727 55.1957C333.307 55.9642 334.287 57.3515 334.908 58.2896C335.518 59.2278 336.378 60.595 336.798 61.3336C337.228 62.0721 337.988 63.5093 338.489 64.5273C338.999 65.5452 339.649 66.9624 339.939 67.671C340.239 68.3796 340.719 69.6471 341.009 70.4655C341.289 71.2939 341.719 72.6412 341.94 73.4596C342.17 74.2879 342.51 75.7151 342.7 76.6533C342.89 77.5914 343.14 79.1084 343.27 80.0465C343.47 81.5536 343.5 82.1624 343.5 85.4359C343.5 88.41 343.46 89.408 343.32 90.5757C343.22 91.3741 343.03 92.6316 342.89 93.3702C342.76 94.1087 342.46 95.456 342.24 96.3642C342.01 97.2724 341.599 98.7096 341.329 99.5579C341.049 100.406 340.569 101.754 340.249 102.552C339.929 103.35 339.389 104.608 339.039 105.346C338.699 106.085 338.108 107.253 337.748 107.941C337.378 108.63 336.768 109.708 336.398 110.337C336.018 110.965 335.308 112.093 334.817 112.832C334.317 113.57 333.557 114.678 333.117 115.277C332.677 115.876 331.887 116.914 331.356 117.572C330.826 118.231 329.766 119.488 328.996 120.367C328.226 121.245 326.735 122.812 325.695 123.86C324.655 124.908 323.124 126.365 322.294 127.113C321.474 127.852 320.123 129.02 319.293 129.698C318.473 130.387 317.182 131.415 316.442 131.994C315.702 132.573 314.261 133.64 313.241 134.379C312.221 135.108 310.42 136.345 309.24 137.134C308.06 137.912 306.389 138.98 305.539 139.499C304.689 140.028 303.108 140.956 302.038 141.575C300.968 142.194 299.117 143.212 297.937 143.85C296.756 144.479 294.686 145.547 293.335 146.206C291.985 146.874 289.894 147.872 288.684 148.431C287.474 148.98 285.543 149.838 284.383 150.337C283.222 150.826 281.342 151.615 280.182 152.084C279.021 152.543 277.161 153.272 276.03 153.701C274.9 154.12 273.35 154.699 272.579 154.968C271.809 155.248 270.009 155.866 268.578 156.346C267.148 156.835 264.827 157.583 263.427 158.022C262.026 158.461 259.456 159.23 257.725 159.719C255.995 160.218 253.354 160.936 251.873 161.326C250.393 161.715 248.052 162.294 246.672 162.623C245.301 162.952 243.051 163.461 241.67 163.771C240.3 164.07 237.929 164.569 236.419 164.869C234.908 165.168 232.678 165.597 231.467 165.817C230.257 166.036 227.756 166.465 225.916 166.765C224.075 167.074 221.304 167.493 219.764 167.713C218.224 167.933 215.503 168.302 213.712 168.521C211.922 168.741 209.401 169.03 208.111 169.16C206.82 169.3 204.52 169.529 203.009 169.659C201.499 169.799 199.038 170.008 197.558 170.108C196.077 170.218 193.686 170.378 192.256 170.458C190.826 170.547 188.685 170.657 187.505 170.717C186.324 170.767 183.623 170.867 181.503 170.927C179.052 170.997 174.591 171.016 169.199 170.987C164.548 170.957 159.686 170.887 158.396 170.827C157.106 170.767 155.125 170.667 153.995 170.617C152.864 170.557 150.884 170.448 149.594 170.358C148.303 170.278 146.073 170.128 144.642 170.018C143.212 169.909 140.851 169.699 139.391 169.559C137.93 169.43 135.71 169.2 134.439 169.06C133.169 168.931 130.878 168.661 129.338 168.462C127.797 168.272 125.116 167.913 123.386 167.663C121.655 167.414 118.775 166.964 116.984 166.675C115.194 166.376 112.383 165.887 110.732 165.577C109.082 165.268 106.331 164.729 104.63 164.37C102.93 164.01 100.449 163.471 99.1289 163.162C97.8085 162.863 95.5778 162.324 94.1774 161.974C92.777 161.625 90.2263 160.966 88.5258 160.497C86.8253 160.028 84.2345 159.29 82.7741 158.851C81.3137 158.411 79.2031 157.763 78.0727 157.403C76.9424 157.034 74.9618 156.385 73.6714 155.936C72.3811 155.487 70.0204 154.639 68.4199 154.05C66.8195 153.451 64.5688 152.593 63.4185 152.124C62.2681 151.655 60.3676 150.876 59.2172 150.377C58.0669 149.888 56.1063 149.02 54.866 148.451C53.6256 147.892 51.2849 146.764 49.6645 145.956C48.044 145.138 45.8333 144 44.763 143.411C43.6927 142.832 41.9522 141.854 40.9119 141.245C39.8716 140.647 38.3612 139.748 37.5609 139.249C36.7607 138.75 35.1902 137.742 34.0599 136.994C32.9296 136.245 31.1991 135.058 30.2088 134.339C29.2185 133.62 27.7981 132.573 27.0579 131.994C26.3177 131.415 25.0373 130.387 24.207 129.698C23.3868 129.02 22.0364 127.852 21.2062 127.113C20.3859 126.375 18.8455 124.908 17.8052 123.86C16.7649 122.822 15.2744 121.245 14.5042 120.367C13.734 119.488 12.6737 118.231 12.1435 117.572C11.6134 116.914 10.8232 115.876 10.383 115.277C9.94289 114.678 9.18267 113.57 8.68253 112.832C8.19239 112.093 7.48218 110.965 7.10207 110.337C6.73196 109.708 6.12178 108.63 5.75167 107.941C5.39157 107.253 4.8014 106.085 4.4613 105.346C4.1112 104.608 3.57104 103.35 3.25095 102.552C2.93085 101.754 2.45071 100.406 2.17063 99.5579C1.90055 98.7096 1.49043 97.2724 1.26037 96.3642C1.0403 95.456 0.740215 94.1087 0.610178 93.3702C0.470137 92.6316 0.280082 91.3741 0.180052 90.5757C0.0400116 89.408 0 88.41 0 85.4359C0 82.1624 0.0300087 81.5536 0.230067 80.0465C0.360105 79.1084 0.610178 77.5914 0.800233 76.6533C0.990288 75.7151 1.33039 74.278 1.56045 73.4596C1.78052 72.6312 2.21064 71.2839 2.49073 70.4655C2.78081 69.6371 3.26095 68.3796 3.56104 67.671C3.85112 66.9624 4.50131 65.5452 5.01146 64.5273C5.5116 63.5093 6.27183 62.0721 6.70195 61.3336C7.12207 60.595 7.95231 59.2677 8.52248 58.3894C9.10265 57.5112 10.0329 56.1838 10.5831 55.4452C11.1332 54.7067 11.9535 53.6488 12.3936 53.0999C12.8337 52.551 13.674 51.5629 14.2541 50.9042C14.8343 50.2455 15.8846 49.0978 16.5848 48.3593C17.295 47.6207 18.5354 46.3832 19.3456 45.6147C20.1559 44.8462 21.3562 43.7384 22.0164 43.1596C22.6666 42.5807 23.7969 41.6226 24.5071 41.0338C25.2273 40.4449 26.4377 39.4769 27.2079 38.888C27.9781 38.2892 29.2185 37.361 29.9587 36.8221C30.6989 36.2832 32.2494 35.2053 33.4097 34.4269C34.5701 33.6484 36.2305 32.5705 37.1108 32.0216C37.9911 31.4727 39.3214 30.6643 40.0617 30.2252C40.8019 29.786 42.1723 28.9976 43.1126 28.4786C44.0528 27.9597 45.8734 26.9716 47.1637 26.293C48.4541 25.6143 50.6848 24.5065 52.1152 23.8278C53.5456 23.1492 55.8663 22.0813 57.2667 21.4625C58.6671 20.8437 60.8277 19.9256 62.0681 19.4166C63.3084 18.9076 65.309 18.1092 66.5194 17.6501C67.7297 17.181 70.0204 16.3426 71.6208 15.7738C73.2213 15.2149 75.492 14.4364 76.6723 14.0472C77.8527 13.658 79.7732 13.0492 80.9236 12.6999C82.0739 12.3406 84.1245 11.7318 85.4749 11.3525C86.8253 10.9633 88.8759 10.3944 90.0262 10.085C91.1765 9.77565 93.2772 9.23672 94.6776 8.88741C96.078 8.5381 98.4186 7.98918 99.8791 7.65984C101.339 7.33049 103.72 6.81152 105.181 6.50213C106.641 6.20272 109.052 5.72367 110.532 5.44422C112.013 5.16478 114.983 4.6458 117.134 4.29649C119.285 3.94719 122.316 3.46813 123.886 3.24857C125.457 3.029 127.977 2.68968 129.488 2.50005C130.998 2.31043 133.299 2.05094 134.589 1.91122C135.88 1.77149 137.89 1.56191 139.04 1.45213C140.191 1.34234 142.241 1.1627 143.592 1.05292C144.942 0.943133 147.053 0.793429 148.293 0.703607C149.534 0.623765 151.784 0.494022 153.295 0.41418C154.805 0.334338 157.486 0.214575 159.246 0.154694C161.007 0.0948123 162.847 0.0349309 163.348 0.0149704C163.848 -0.00499012 168.319 -0.00499012 173.3 0.0149704ZM96.078 56.054C96.4381 56.054 96.9282 56.094 97.1783 56.1538C97.4284 56.2137 97.8685 56.3834 98.1686 56.5231C98.4787 56.6828 98.9488 57.0521 99.2689 57.3914C99.659 57.8006 99.9191 58.2098 100.119 58.6888C100.359 59.2677 100.419 59.5671 100.449 60.4853C100.489 61.2937 100.459 61.7727 100.329 62.2817C100.239 62.661 100.019 63.2498 99.8491 63.5692C99.669 63.8985 99.3489 64.3476 99.1289 64.5772C98.9088 64.7967 98.5287 65.1061 98.2786 65.2558C98.0285 65.3955 97.5384 65.5952 97.1783 65.685C96.7282 65.7948 96.308 65.8347 95.8279 65.7948C95.4378 65.7648 94.8776 65.6451 94.5775 65.5353C94.2774 65.4255 93.8073 65.156 93.5372 64.9564C93.2671 64.7468 92.857 64.3077 92.627 63.9783C92.4069 63.649 92.1368 63.13 92.0368 62.8306C91.9168 62.4913 91.8267 61.8725 91.7967 61.2338C91.7667 60.4653 91.7967 59.9962 91.9168 59.4872C92.0068 59.098 92.2369 58.5192 92.4269 58.1898C92.617 57.8605 92.9971 57.3914 93.2571 57.1519C93.5172 56.9123 93.9073 56.6229 94.1274 56.5131C94.3475 56.4033 94.7276 56.2536 94.9776 56.1838C95.2277 56.1139 95.7179 56.054 96.078 56.054ZM188.685 58.5491C188.775 58.5391 188.805 62.7408 188.805 99.9571L180.953 99.9072L180.453 96.5838L179.592 97.3922C179.122 97.8413 178.382 98.4202 177.942 98.6797C177.512 98.9391 176.751 99.2984 176.251 99.498C175.761 99.6877 174.901 99.9372 174.351 100.057C173.761 100.177 172.75 100.286 171.9 100.326C170.99 100.366 170.019 100.336 169.299 100.267C168.669 100.197 167.629 100.007 166.999 99.8374C166.368 99.6777 165.448 99.3783 164.948 99.1687C164.458 98.9691 163.728 98.6098 163.348 98.3902C162.967 98.1707 162.287 97.7116 161.847 97.3922C161.407 97.0629 160.667 96.3942 160.197 95.9052C159.726 95.4061 159.116 94.6676 158.826 94.2584C158.546 93.8592 158.086 93.0708 157.816 92.5218C157.536 91.9729 157.176 91.1246 157.006 90.6256C156.836 90.1266 156.616 89.2982 156.506 88.7793C156.396 88.2603 156.255 87.392 156.205 86.8531C156.145 86.3241 156.095 85.4359 156.095 84.887C156.095 84.338 156.145 83.4498 156.205 82.9109C156.265 82.3819 156.406 81.5136 156.516 80.9947C156.626 80.4757 156.876 79.5974 157.066 79.0485C157.256 78.4996 157.586 77.7112 157.796 77.302C158.006 76.8928 158.456 76.1243 158.806 75.6053C159.176 75.0564 159.857 74.238 160.447 73.6592C161.027 73.0704 161.847 72.3917 162.397 72.0224C162.917 71.6731 163.638 71.244 163.998 71.0643C164.358 70.8947 164.968 70.6252 165.348 70.4855C165.728 70.3358 166.478 70.1062 166.999 69.9765C167.519 69.8368 168.309 69.6771 168.749 69.6072C169.189 69.5373 170.27 69.4775 171.15 69.4874C172.17 69.4874 173.08 69.5473 173.651 69.6471C174.151 69.7369 174.931 69.9266 175.401 70.0763C175.871 70.216 176.631 70.5354 177.102 70.7649C177.572 71.0044 178.162 71.3438 178.422 71.5334C178.672 71.713 179.142 72.1023 180.002 72.9107V66.5732C180.002 61.5931 180.032 60.2258 180.132 60.1859C180.192 60.1559 182.123 59.7867 184.404 59.3475C186.684 58.9184 188.615 58.5591 188.685 58.5491ZM169.279 77.3918C168.929 77.5515 168.359 77.9008 168.009 78.1703C167.649 78.4297 167.159 78.8988 166.899 79.1982C166.649 79.4976 166.298 79.9966 166.128 80.296C165.958 80.5955 165.678 81.2442 165.508 81.7432C165.348 82.2322 165.158 83.0406 165.088 83.5396C165.018 84.0686 164.998 84.877 165.028 85.4858C165.068 86.0646 165.188 86.9129 165.298 87.382C165.408 87.8511 165.718 88.6595 165.968 89.1785C166.358 89.9669 166.588 90.2763 167.289 90.9749C167.919 91.6037 168.359 91.943 168.949 92.2424C169.389 92.4719 170.09 92.7514 170.5 92.8612C170.91 92.961 171.61 93.0807 172.05 93.1207C172.52 93.1606 173.2 93.1406 173.701 93.0708C174.171 93.0109 174.931 92.8113 175.401 92.6316C175.871 92.462 176.501 92.1526 176.801 91.953C177.102 91.7534 177.682 91.2544 178.082 90.8352C178.622 90.2663 178.912 89.8471 179.252 89.1485C179.502 88.6495 179.802 87.8711 179.922 87.4319C180.102 86.7732 180.132 86.3441 180.142 84.9369C180.152 83.4598 180.122 83.1304 179.922 82.3919C179.792 81.9228 179.542 81.2242 179.362 80.845C179.182 80.4557 178.832 79.8769 178.582 79.5475C178.342 79.2182 177.912 78.7491 177.622 78.4996C177.342 78.2501 176.821 77.8808 176.481 77.6712C176.131 77.4617 175.491 77.1822 175.051 77.0325C174.381 76.8229 174.021 76.773 172.85 76.7431C171.7 76.7131 171.31 76.7431 170.68 76.9028C170.25 77.0125 169.619 77.2321 169.279 77.3918ZM233.348 58.5491C233.508 58.5391 233.518 59.5671 233.468 99.9072L224.715 99.9571V60.1859L228.937 59.3775C231.267 58.9283 233.248 58.5591 233.348 58.5491ZM55.4661 60.8346H88.3757L88.3857 66.7728L67.1596 92.422L87.0753 92.4719L87.1754 92.7913C87.2254 92.971 87.6955 94.6077 88.2157 96.4141C88.7458 98.2206 89.176 99.7675 89.176 99.8274C89.176 99.9272 85.6949 99.9571 55.066 99.9571L55.076 93.9191L65.6791 81.1643C71.5008 74.1582 76.2722 68.3996 76.2722 68.3697C76.2722 68.3397 71.5908 68.3198 55.4661 68.3198V60.8346ZM249.723 63.2298V70.5154H257.225L257.175 70.8847C257.145 71.0943 256.965 72.5913 256.775 74.2081C256.585 75.8249 256.425 77.1822 256.425 77.2221C256.425 77.272 254.914 77.302 249.723 77.302V83.6095C249.723 88.8591 249.753 90.0467 249.873 90.6256C249.963 91.0048 250.133 91.5039 250.263 91.7234C250.393 91.943 250.713 92.3123 250.983 92.5518C251.253 92.7813 251.693 93.0508 251.973 93.1506C252.323 93.2704 252.794 93.3203 253.524 93.3203C254.104 93.3203 254.754 93.2604 254.974 93.1905C255.194 93.1207 255.554 92.9809 255.774 92.8911C255.995 92.8013 256.345 92.6316 256.545 92.5019C256.755 92.3721 256.945 92.2823 256.965 92.2923C256.985 92.3123 257.525 93.6895 259.325 98.4102L259.105 98.5998C258.975 98.6996 258.585 98.9292 258.225 99.1088C257.865 99.2885 257.215 99.5479 256.775 99.6877C256.335 99.8274 255.594 100.017 255.124 100.107C254.654 100.197 253.644 100.296 252.874 100.326C252.083 100.356 250.993 100.336 250.373 100.276C249.763 100.207 248.842 100.057 248.322 99.9172C247.802 99.7875 247.032 99.5479 246.622 99.3783C246.212 99.2086 245.581 98.8793 245.221 98.6497C244.861 98.4202 244.351 98.0509 244.091 97.8214C243.821 97.5918 243.361 97.0928 243.071 96.7135C242.771 96.3243 242.351 95.6556 242.14 95.2165C241.92 94.7774 241.64 94.0987 241.52 93.7195C241.41 93.3302 241.24 92.6616 241.15 92.2224C241.02 91.5538 240.99 90.3162 240.92 77.302H236.319V70.5154H240.92L240.9 66.9425C240.89 64.9764 240.92 63.3296 240.97 63.2997C241.02 63.2598 243.001 63.2298 249.723 63.2298ZM122.586 69.4176V77.5515L121.515 77.4916C120.915 77.4517 120.005 77.4716 119.485 77.5116C118.965 77.5615 118.264 77.6712 117.934 77.7611C117.604 77.8409 116.954 78.1004 116.484 78.32C115.814 78.6393 115.474 78.8888 114.873 79.4877C114.463 79.9068 113.983 80.4957 113.803 80.7951C113.633 81.0945 113.363 81.7432 113.193 82.2422C113.033 82.7412 112.853 83.4897 112.793 83.9089C112.723 84.4079 112.683 87.4519 112.683 99.9571H103.88V88.1804L104.15 88.0407C104.31 87.9609 104.62 87.7014 104.851 87.4619C105.081 87.2223 105.391 86.7832 105.551 86.4838C105.801 85.9848 105.831 85.8351 105.831 84.9369C105.821 84.1185 105.781 83.849 105.601 83.4598C105.481 83.2003 105.171 82.7612 104.901 82.4817C104.64 82.2023 104.31 81.9128 103.88 81.6933V69.9166H112.283V73.6093L113.053 72.8308C113.483 72.4117 114.153 71.8528 114.533 71.6033C114.913 71.3438 115.504 71.0044 115.834 70.8348C116.164 70.6751 116.754 70.4256 117.134 70.2859C117.514 70.1461 118.284 69.9465 118.835 69.8268C119.385 69.707 120.235 69.5773 120.735 69.5274C121.235 69.4874 121.845 69.4375 122.586 69.4176ZM138.49 69.4276C138.85 69.4276 139.661 69.4675 140.291 69.5274C140.921 69.5773 141.961 69.737 142.592 69.8767C143.222 70.0164 144.212 70.3158 144.792 70.5254C145.372 70.745 146.243 71.1442 146.743 71.4136C147.243 71.6931 148.023 72.2021 148.493 72.5514C148.963 72.9007 149.744 73.6093 150.244 74.1183C150.744 74.6373 151.394 75.4357 151.714 75.9047C152.024 76.3738 152.484 77.1822 152.744 77.7012C153.015 78.2202 153.375 79.1184 153.565 79.6972C153.755 80.2761 153.995 81.2442 154.095 81.843C154.195 82.4418 154.315 83.4797 154.355 84.1384C154.395 84.847 154.375 85.8051 154.305 86.4838C154.235 87.1126 154.095 88.0307 153.985 88.5297C153.885 89.0288 153.675 89.7873 153.535 90.2264C153.395 90.6655 153.035 91.5238 152.744 92.1226C152.444 92.7215 151.954 93.5798 151.634 94.0189C151.324 94.458 150.814 95.1067 150.504 95.456C150.194 95.8053 149.604 96.3742 149.193 96.7135C148.783 97.0529 148.083 97.5718 147.643 97.8613C147.203 98.1407 146.483 98.5499 146.043 98.7595C145.602 98.9691 144.842 99.2785 144.342 99.4481C143.842 99.6278 142.882 99.8873 142.191 100.027C141.071 100.267 140.721 100.296 138.79 100.296C137.11 100.306 136.42 100.267 135.639 100.117C135.089 100.017 134.189 99.7974 133.639 99.6378C133.089 99.4781 132.098 99.0888 131.438 98.7695C130.778 98.4601 129.948 98.001 129.588 97.7615C129.228 97.5219 128.577 97.0329 128.137 96.6537C127.697 96.2844 127.107 95.7255 126.827 95.4061C126.547 95.0768 126.077 94.478 125.777 94.0688C125.477 93.6596 125.006 92.8712 124.716 92.3222C124.436 91.7733 124.066 90.925 123.896 90.426C123.716 89.927 123.466 88.9888 123.326 88.3301C123.166 87.5417 123.056 86.6135 123.016 85.6355C122.976 84.6874 123.006 83.7492 123.076 83.0905C123.146 82.5117 123.266 81.7232 123.346 81.344C123.426 80.9547 123.626 80.2162 123.796 79.6972C123.966 79.1783 124.296 78.3499 124.536 77.8509C124.766 77.3519 125.246 76.5235 125.597 76.0045C125.997 75.4057 126.647 74.6273 127.377 73.8987C128.107 73.1702 128.888 72.5214 129.488 72.1222C130.008 71.7729 130.838 71.2939 131.338 71.0643C131.838 70.8248 132.669 70.4955 133.189 70.3258C133.709 70.1461 134.589 69.9166 135.139 69.8068C135.689 69.697 136.52 69.5673 136.99 69.5274C137.46 69.4775 138.13 69.4375 138.49 69.4276ZM136.52 77.0325C136.15 77.1323 135.569 77.3619 135.239 77.5315C134.869 77.7211 134.309 78.1703 133.779 78.6992C133.139 79.3379 132.819 79.7471 132.519 80.3459C132.289 80.7851 131.978 81.5436 131.828 82.0426C131.608 82.8011 131.558 83.1803 131.518 84.4877C131.478 85.6854 131.508 86.2443 131.638 86.9329C131.728 87.4319 131.938 88.1705 132.088 88.5796C132.248 88.9888 132.569 89.6176 132.799 89.9769C133.029 90.3362 133.499 90.8951 133.839 91.2244C134.179 91.5538 134.699 91.9729 134.999 92.1426C135.299 92.3222 135.88 92.5917 136.29 92.7314C136.7 92.8712 137.4 93.0408 137.84 93.0907C138.41 93.1706 138.9 93.1606 139.561 93.0807C140.071 93.0209 140.771 92.8712 141.111 92.7414C141.461 92.6216 142.011 92.3622 142.341 92.1725C142.662 91.9829 143.232 91.5338 143.592 91.1745C143.952 90.8152 144.442 90.2064 144.662 89.8272C144.892 89.438 145.212 88.7294 145.382 88.2303C145.542 87.7313 145.732 86.9529 145.802 86.4838C145.872 85.9648 145.902 85.1564 145.862 84.3879C145.832 83.6494 145.722 82.7911 145.592 82.2921C145.482 81.823 145.172 81.0146 144.922 80.4957C144.532 79.7072 144.322 79.4078 143.602 78.6892C143.012 78.1104 142.521 77.7211 142.041 77.4716C141.661 77.272 140.981 77.0225 140.541 76.9028C139.951 76.7531 139.461 76.7032 138.69 76.7131C138.11 76.7231 137.54 76.7531 137.42 76.783C137.3 76.8129 136.89 76.9227 136.52 77.0325ZM206.51 69.4276C206.87 69.4276 207.65 69.4675 208.261 69.5174C208.871 69.5773 209.811 69.717 210.361 69.8268C210.911 69.9366 211.812 70.1761 212.362 70.3557C212.912 70.5454 213.742 70.8847 214.212 71.1142C214.682 71.3438 215.383 71.743 215.763 71.9925C216.143 72.232 216.803 72.721 217.213 73.0604C217.623 73.3997 218.254 74.0085 218.604 74.4177C218.954 74.8269 219.454 75.4656 219.714 75.8548C219.974 76.2341 220.394 76.9527 220.634 77.4517C220.884 77.9507 221.234 78.7491 221.404 79.2481C221.584 79.7471 221.835 80.7052 221.975 81.3939C222.115 82.0825 222.255 83.1803 222.285 83.839C222.315 84.4977 222.315 85.5656 222.215 87.382H210.861C204.62 87.382 199.508 87.392 199.508 87.402C199.508 87.4219 199.598 87.7213 199.718 88.0806C199.838 88.4399 200.028 88.929 200.158 89.1785C200.288 89.428 200.588 89.897 200.838 90.2264C201.079 90.5557 201.569 91.0647 201.919 91.3542C202.269 91.6436 202.959 92.0827 203.459 92.3222C203.949 92.5618 204.72 92.8512 205.16 92.971C205.76 93.1306 206.38 93.2005 207.61 93.2404C208.681 93.2704 209.521 93.2504 210.011 93.1706C210.421 93.1007 211.171 92.9211 211.662 92.7614C212.152 92.6017 212.922 92.2723 213.362 92.0228C213.802 91.7633 214.462 91.3142 214.833 91.0148C215.213 90.7154 215.553 90.4859 215.593 90.4959C215.643 90.5158 216.523 91.444 217.563 92.5717C218.594 93.6995 219.634 94.8073 220.264 95.486L219.364 96.3443C218.864 96.8233 218.123 97.4321 217.713 97.7116C217.303 97.981 216.583 98.3902 216.113 98.6298C215.643 98.8593 214.793 99.2086 214.212 99.3982C213.632 99.5879 212.712 99.8374 212.162 99.9471C211.612 100.057 210.621 100.207 209.961 100.267C209.231 100.336 208.071 100.356 207.01 100.326C206.05 100.296 204.83 100.197 204.309 100.107C203.789 100.017 202.909 99.8374 202.359 99.6976C201.809 99.5579 200.979 99.2984 200.508 99.1188C200.038 98.9292 199.278 98.5998 198.808 98.3603C198.338 98.1307 197.668 97.7515 197.307 97.522C196.947 97.2824 196.247 96.7634 195.757 96.3443C195.257 95.9251 194.557 95.2365 194.197 94.8073C193.836 94.3682 193.356 93.7494 193.136 93.4201C192.916 93.0907 192.526 92.422 192.286 91.923C192.036 91.424 191.686 90.6256 191.516 90.1266C191.336 89.6276 191.096 88.7793 190.976 88.2303C190.786 87.3621 190.766 86.9229 190.766 84.887C190.766 82.8111 190.786 82.4218 190.986 81.5436C191.116 80.9947 191.346 80.1463 191.516 79.6473C191.686 79.1483 192.086 78.2301 192.416 77.6014C192.746 76.9726 193.296 76.0744 193.646 75.6053C193.996 75.1363 194.727 74.3279 195.267 73.8089C195.817 73.2899 196.687 72.5713 197.207 72.222C197.728 71.8727 198.608 71.3737 199.158 71.1142C199.708 70.8547 200.648 70.4755 201.259 70.2859C201.859 70.0863 202.759 69.8567 203.259 69.7669C203.749 69.6671 204.54 69.5673 205.01 69.5174C205.48 69.4775 206.15 69.4375 206.51 69.4276ZM204.359 76.4537C204.029 76.5435 203.469 76.773 203.109 76.9527C202.749 77.1323 202.179 77.5016 201.829 77.791C201.489 78.0705 201.009 78.5794 200.768 78.9188C200.518 79.2681 200.208 79.797 200.068 80.0964C199.928 80.3958 199.718 80.9547 199.608 81.344C199.498 81.7232 199.408 82.0725 199.408 82.1125C199.408 82.1624 202.689 82.1923 206.71 82.1923C212.482 82.1923 214.012 82.1624 214.012 82.0626C214.012 82.0027 213.922 81.6234 213.802 81.2442C213.682 80.8549 213.472 80.316 213.342 80.0465C213.202 79.7671 212.902 79.2781 212.662 78.9487C212.432 78.6194 212.052 78.1802 211.822 77.9707C211.602 77.771 211.151 77.4417 210.831 77.2321C210.521 77.0325 209.971 76.763 209.611 76.6233C209.251 76.4936 208.621 76.3239 208.211 76.2441C207.8 76.1742 207.1 76.1143 206.66 76.1243C206.22 76.1243 205.66 76.1642 205.41 76.2041C205.16 76.2441 204.69 76.3539 204.359 76.4537ZM273.78 69.4276C274.16 69.4276 275.11 69.4675 275.88 69.5174C276.651 69.5773 277.821 69.7369 278.481 69.8667C279.141 70.0064 280.022 70.216 280.432 70.3557C280.842 70.4855 281.542 70.7649 281.982 70.9645C282.422 71.1641 283.102 71.5334 283.483 71.7929C283.863 72.0524 284.523 72.5813 284.933 72.9706C285.343 73.3598 285.913 74.0185 286.193 74.4177C286.473 74.8269 286.854 75.4456 287.034 75.8049C287.214 76.1642 287.504 76.9028 287.694 77.4517C287.874 78.0006 288.104 78.8489 288.204 79.3479C288.364 80.1663 288.384 81.1344 288.434 99.9571H280.232L280.222 96.4141L280.002 96.7135C279.881 96.8732 279.601 97.2126 279.381 97.4521C279.161 97.6916 278.731 98.0808 278.431 98.3104C278.131 98.5499 277.521 98.9192 277.081 99.1387C276.641 99.3683 275.87 99.6677 275.38 99.8074C274.89 99.9471 274.01 100.137 273.43 100.207C272.849 100.286 271.849 100.356 271.199 100.356C270.559 100.356 269.518 100.286 268.898 100.207C268.288 100.127 267.368 99.9471 266.878 99.8074C266.388 99.6577 265.547 99.3384 265.027 99.0988C264.507 98.8493 263.807 98.4501 263.477 98.2206C263.147 97.981 262.556 97.4521 262.176 97.0429C261.796 96.6237 261.326 96.0449 261.156 95.7554C260.976 95.456 260.716 94.947 260.586 94.6177C260.446 94.2883 260.256 93.7295 260.156 93.3702C260.026 92.8712 259.986 92.3622 259.986 91.1745C259.986 89.897 260.026 89.4879 260.206 88.8292C260.336 88.39 260.586 87.7114 260.776 87.3321C260.966 86.9429 261.366 86.3341 261.676 85.9548C261.976 85.5856 262.526 85.0566 262.897 84.7772C263.277 84.4977 264.027 84.0486 264.577 83.7792C265.127 83.5197 265.987 83.1803 266.478 83.0406C266.968 82.9009 267.868 82.6913 268.478 82.5715C269.488 82.3819 270.009 82.362 279.731 82.2921L279.671 81.7631C279.641 81.4837 279.571 80.9947 279.511 80.6953C279.461 80.3958 279.261 79.827 279.081 79.4477C278.841 78.9387 278.571 78.5794 278.091 78.1204C277.701 77.7611 277.171 77.3818 276.801 77.2122C276.46 77.0525 275.91 76.8529 275.58 76.763C275.25 76.6732 274.5 76.5634 273.9 76.5036C273.18 76.4337 272.449 76.4337 271.679 76.5036C271.049 76.5535 270.199 76.6732 269.799 76.7531C269.408 76.8429 268.758 77.0026 268.378 77.1223C267.998 77.2321 267.298 77.4916 266.828 77.6912C266.358 77.8908 265.587 78.32 265.097 78.6293C264.617 78.9387 264.207 79.1982 264.177 79.1982C264.147 79.1982 263.427 77.8309 262.576 76.1542C261.726 74.4776 261.036 73.0903 261.046 73.0704C261.066 73.0504 261.366 72.8408 261.726 72.6113C262.086 72.3817 262.827 71.9825 263.377 71.713C263.927 71.4536 264.847 71.0743 265.427 70.8647C266.007 70.6651 266.998 70.3757 267.628 70.216C268.258 70.0663 269.248 69.8667 269.829 69.7769C270.409 69.6771 271.369 69.5673 271.979 69.5274C272.589 69.4775 273.4 69.4375 273.78 69.4276ZM270.929 87.7713C270.569 87.881 270.079 88.1006 269.829 88.2603C269.578 88.41 269.258 88.6894 269.108 88.8791C268.958 89.0687 268.768 89.428 268.678 89.6775C268.598 89.927 268.528 90.436 268.528 90.8252C268.528 91.2045 268.588 91.7234 268.668 91.9729C268.758 92.2224 269.018 92.6416 269.258 92.9211C269.498 93.1905 269.959 93.5598 270.289 93.7394C270.609 93.9091 271.199 94.1287 271.579 94.2285C272.039 94.3383 272.679 94.3882 273.43 94.3882C274.27 94.3782 274.8 94.3283 275.38 94.1686C275.82 94.0588 276.5 93.7993 276.881 93.5897C277.321 93.3602 277.841 92.971 278.291 92.5218C278.791 92.0228 279.101 91.6037 279.371 91.0747L279.741 90.3262L279.731 87.382C274.5 87.402 272.659 87.4419 272.279 87.4918C271.899 87.5317 271.289 87.6615 270.929 87.7713ZM91.7767 69.9166H100.479V75.8548C100.479 81.4238 100.469 81.7931 100.299 81.843C100.209 81.8629 99.9191 82.1125 99.649 82.3919C99.3889 82.6614 99.0588 83.1504 98.8988 83.4598C98.6687 83.9588 98.6287 84.1584 98.6287 84.9369C98.6287 85.7453 98.6587 85.9049 98.9388 86.4838C99.1389 86.883 99.459 87.3122 99.769 87.6016C100.049 87.8711 100.319 88.0806 100.379 88.0806C100.449 88.0806 100.479 90.1266 100.479 99.9571H91.7767V69.9166Z" fill="white"/>
</svg>