<svg width="580" height="104" viewBox="0 0 580 104" fill="none" xmlns="http://www.w3.org/2000/svg">
<path fill-rule="evenodd" clip-rule="evenodd" d="M56.1198 0C86.9899 0 112.24 0.05 112.24 0.133333C112.24 0.2 105.886 10.3333 98.0971 22.6667C84.038 44.95 83.9379 45.0833 83.4543 45C83.1874 44.95 82.2201 44.9167 81.3029 44.9167C79.7685 44.9167 79.5517 44.9667 78.501 45.4667C77.884 45.75 77.0334 46.3333 76.5831 46.7333C76.1495 47.1333 75.5658 47.9 75.2823 48.4333C74.9988 48.9833 74.6652 49.8333 74.5485 50.3333C74.415 50.8667 74.365 51.7667 74.415 52.5C74.4818 53.3667 74.6319 54.0667 74.9487 54.75C75.1989 55.3 75.6325 56.05 75.916 56.4167C76.3163 56.9167 76.3997 57.15 76.2663 57.3333C76.1662 57.4667 70.3791 66.6667 63.3745 77.75C56.3867 88.8333 50.5829 98.0167 50.4661 98.1167C50.3327 98.2833 48.8317 95.4833 44.0286 86.15C40.5931 79.4333 37.7912 73.8833 37.8079 73.8167C37.8413 73.7333 42.8112 64.3333 48.8651 52.9167C54.919 41.5 59.8556 32.1333 59.8389 32.1C59.8055 32.0667 48.8317 29.7667 11.0905 21.95L5.55361 11.1833C2.50163 5.26667 0 0.316667 0 0.216667C0 0.05 11.3407 0 56.1198 0ZM411.734 32.5167C411.884 32.5 411.934 39.6667 411.934 103.167H398.676L398.259 100.333C398.025 98.7667 397.809 97.5 397.759 97.5C397.709 97.5 397.242 97.9667 396.708 98.5C396.191 99.05 395.29 99.85 394.707 100.267C394.14 100.683 393.089 101.333 392.372 101.683C391.671 102.033 390.437 102.55 389.62 102.817C388.819 103.083 387.452 103.433 386.585 103.583C385.717 103.733 384.1 103.9 382.999 103.95C381.615 104 380.347 103.95 378.913 103.767C377.762 103.617 376.111 103.317 375.244 103.083C374.377 102.867 373.059 102.45 372.325 102.167C371.592 101.867 370.574 101.417 370.074 101.167C369.574 100.917 368.44 100.233 367.572 99.65C366.622 99.0167 365.287 97.9 364.22 96.85C363.119 95.7333 362.052 94.4667 361.352 93.4167C360.751 92.5 359.917 91.0333 359.5 90.1667C359.083 89.3 358.533 87.9167 358.266 87.0833C357.983 86.25 357.616 84.7833 357.416 83.8C357.216 82.8 356.999 80.9667 356.899 79.7167C356.799 78.2333 356.799 76.6667 356.899 75.3333C356.982 74.1833 357.166 72.6167 357.299 71.8333C357.449 71.05 357.749 69.75 357.983 68.9167C358.233 68.1 358.65 66.9 358.917 66.25C359.184 65.6167 359.684 64.5333 360.034 63.8833C360.368 63.2167 361.118 62.0167 361.685 61.2167C362.252 60.4 363.486 59 364.437 58.0667C365.538 56.9833 366.822 55.95 367.989 55.1833C369.007 54.5333 370.608 53.6667 371.575 53.25C372.542 52.85 374.043 52.3333 374.91 52.0833C375.778 51.85 377.345 51.55 378.363 51.4167C379.397 51.2833 381.098 51.1667 382.115 51.1667C383.149 51.1667 384.783 51.2833 385.751 51.4333C386.718 51.5833 388.102 51.8667 388.836 52.0833C389.57 52.3 390.687 52.7167 391.338 53C391.972 53.3 393.022 53.8667 393.673 54.2833C394.306 54.7 395.357 55.55 397.108 57.25L397.091 35.3333L397.458 35.25C397.675 35.2 400.911 34.5667 404.68 33.8333C408.449 33.1167 411.618 32.5167 411.718 32.5167H411.734ZM380.848 63.9167C380.297 64.0667 379.28 64.4833 378.596 64.85C377.912 65.2 376.928 65.8333 376.428 66.2667C375.928 66.7 375.144 67.5 374.694 68.0667C374.243 68.6333 373.593 69.6833 373.243 70.4167C372.892 71.15 372.442 72.35 372.242 73.0833C371.992 74.0333 371.875 75.1167 371.808 76.8333C371.742 78.7 371.792 79.5833 372.009 80.75C372.159 81.5833 372.475 82.7833 372.692 83.4167C372.926 84.0667 373.393 85.0667 373.743 85.6667C374.093 86.2667 374.827 87.2333 375.361 87.8167C375.911 88.4 376.828 89.2 377.429 89.6C378.029 89.9833 378.963 90.5 379.513 90.7167C380.064 90.95 381.098 91.25 381.798 91.4C382.515 91.55 383.783 91.6667 384.6 91.6667C385.417 91.6667 386.685 91.55 387.385 91.4C388.102 91.25 389.136 90.95 389.687 90.7167C390.237 90.5 391.171 89.9833 391.771 89.6C392.372 89.2 393.339 88.3667 393.906 87.7333C394.657 86.9333 395.224 86.0833 395.791 84.9167C396.241 84 396.758 82.65 396.958 81.9167C397.158 81.1333 397.342 79.7333 397.392 78.5C397.458 77.2 397.408 75.8833 397.292 75C397.175 74.2167 396.858 72.9167 396.591 72.0833C396.324 71.2667 395.841 70.1 395.49 69.5C395.14 68.9 394.223 67.7667 393.439 66.9833C392.388 65.9167 391.688 65.3833 390.687 64.8667C389.954 64.5 388.786 64.0333 388.102 63.8667C387.419 63.6833 386.218 63.5 385.434 63.45C384.65 63.4 383.533 63.4167 382.932 63.5C382.332 63.5667 381.398 63.75 380.848 63.9167ZM499.842 40.6667H514.518V53H520.772C526.609 53 527.026 53.0167 527.026 53.3C527.026 53.45 526.759 55.8667 526.442 58.6667C526.109 61.4667 525.809 63.9167 525.692 64.5H514.518V75.4667C514.518 82.5667 514.585 86.7333 514.701 87.3333C514.785 87.8333 515.118 88.7 515.418 89.25C515.769 89.9 516.252 90.4667 516.786 90.8667C517.236 91.2167 517.97 91.6 518.437 91.75C518.937 91.9 519.888 92.0167 520.772 92.0167C521.589 92.0167 522.64 91.9333 523.107 91.8167C523.557 91.7 524.358 91.4333 524.858 91.2167C525.358 90.9833 525.975 90.6667 526.225 90.4833C526.576 90.25 526.709 90.2167 526.776 90.3833C526.809 90.4833 527.71 92.85 530.695 100.667L530.228 100.983C529.978 101.15 529.244 101.567 528.61 101.883C527.96 102.2 526.843 102.65 526.109 102.883C525.375 103.117 524.057 103.417 523.19 103.583C522.323 103.733 520.588 103.9 519.354 103.95C517.62 104.017 516.586 103.95 514.851 103.7C513.467 103.5 511.866 103.117 510.682 102.733C509.565 102.35 508.18 101.733 507.363 101.25C506.579 100.8 505.412 99.9 504.762 99.25C504.094 98.6 503.177 97.5167 502.727 96.8333C502.277 96.15 501.659 94.9833 501.359 94.25C501.059 93.5167 500.609 92.1333 499.942 89.4167L499.842 64.5H492.003V53H499.842V40.6667ZM328.23 51.25C330.682 51.3 331.716 51.4 333.317 51.7333C334.417 51.9667 335.985 52.3833 336.819 52.6833C337.636 52.9667 338.92 53.4833 339.654 53.8333C340.388 54.1833 341.589 54.8667 342.323 55.3333C343.056 55.8167 344.257 56.7 344.974 57.3167C345.708 57.9167 346.825 59.0167 347.459 59.75C348.093 60.4833 348.977 61.65 349.444 62.3333C349.894 63.0167 350.628 64.3333 351.078 65.25C351.512 66.1667 352.112 67.6333 352.396 68.5C352.679 69.3667 353.08 70.9167 353.296 71.9167C353.613 73.5167 353.663 74.25 353.647 77.6667C353.647 81.0833 353.597 81.8 353.263 83.3333C353.063 84.3 352.646 85.8333 352.346 86.75C352.029 87.6667 351.428 89.1333 350.995 90C350.561 90.8667 349.777 92.2167 349.26 93C348.743 93.7667 347.609 95.15 346.742 96.05C345.875 96.9667 344.557 98.15 343.824 98.7C343.09 99.25 341.956 100.017 341.322 100.383C340.671 100.767 339.371 101.4 338.403 101.8C337.436 102.217 335.818 102.75 334.818 103.017C333.8 103.267 332.083 103.6 330.982 103.733C329.881 103.883 328.28 104 327.43 104C326.596 104 325.011 103.883 323.927 103.75C322.86 103.6 321.259 103.317 320.392 103.083C319.524 102.867 318.174 102.467 317.39 102.167C316.606 101.883 315.255 101.283 314.388 100.817C313.52 100.35 312.203 99.55 311.486 99.0333C310.752 98.5167 309.468 97.4167 308.617 96.5833C307.783 95.75 306.683 94.5167 306.182 93.8333C305.682 93.15 304.915 91.9833 304.498 91.25C304.064 90.5167 303.464 89.2667 303.13 88.4667C302.814 87.65 302.363 86.3833 302.146 85.6333C301.93 84.8667 301.613 83.5833 301.463 82.75C301.313 81.9333 301.146 80.0167 301.096 78.5C301.029 76.5 301.079 75.2 301.279 73.75C301.413 72.65 301.729 71.0167 301.963 70.1333C302.196 69.2333 302.597 67.9333 302.88 67.25C303.147 66.5667 303.631 65.5 303.948 64.8833C304.248 64.25 304.982 63.0333 305.565 62.1667C306.216 61.1667 307.333 59.8667 308.534 58.65C309.801 57.4 311.052 56.35 312.136 55.6167C313.054 55.0167 314.521 54.1833 315.388 53.7833C316.256 53.3667 317.69 52.8167 318.557 52.5333C319.424 52.25 320.742 51.9 321.476 51.75C322.209 51.6 323.327 51.4167 323.977 51.3333C324.611 51.25 326.529 51.2167 328.23 51.25ZM323.811 63.9333C323.344 64.0833 322.493 64.45 321.893 64.75C321.292 65.05 320.392 65.6333 319.891 66.0333C319.391 66.4333 318.607 67.25 318.157 67.85C317.707 68.4333 317.056 69.5167 316.706 70.25C316.356 70.9833 315.922 72.2167 315.722 73C315.472 73.9667 315.338 75.1833 315.272 76.8333C315.205 78.65 315.255 79.6333 315.455 80.8C315.605 81.6333 315.955 82.95 316.222 83.7167C316.506 84.4667 317.056 85.6167 317.456 86.25C317.857 86.9 318.707 87.9 319.324 88.5C319.958 89.1 320.959 89.8667 321.559 90.2C322.159 90.5333 323.16 90.9667 323.811 91.1667C324.611 91.4167 325.578 91.5667 326.896 91.6167C328.28 91.6833 329.164 91.6333 330.065 91.4333C330.748 91.2833 331.916 90.8833 332.65 90.5333C333.383 90.1667 334.401 89.55 334.901 89.1333C335.401 88.7333 336.169 87.95 336.585 87.4C337.019 86.8667 337.67 85.7833 338.053 85C338.42 84.2167 338.887 82.9833 339.07 82.25C339.271 81.5167 339.471 80.1667 339.537 79.25C339.604 78.3333 339.604 76.8333 339.537 75.9167C339.487 75 339.271 73.6167 339.07 72.8333C338.87 72.05 338.503 70.9667 338.253 70.4167C338.003 69.8667 337.503 68.9667 337.119 68.4167C336.752 67.8667 335.968 66.9667 335.368 66.4167C334.768 65.8667 333.767 65.1333 333.133 64.8C332.499 64.4667 331.415 64.0333 330.732 63.85C330.048 63.6833 328.88 63.5 328.147 63.45C327.413 63.4 326.329 63.4333 325.728 63.5167C325.128 63.6 324.261 63.7833 323.811 63.9333ZM442.638 51.25C444.356 51.2833 446.307 51.4167 447.057 51.55C447.791 51.7 449.025 51.9667 449.809 52.1667C450.593 52.3667 451.794 52.75 452.478 53.0333C453.161 53.3 454.445 53.9 455.313 54.35C456.18 54.8 457.531 55.65 458.315 56.2333C459.098 56.8167 460.449 58.0333 461.317 58.9333C462.184 59.85 463.318 61.2167 463.835 62C464.352 62.7833 465.086 64.0167 465.453 64.75C465.819 65.4833 466.387 66.8333 466.703 67.75C467.02 68.6667 467.437 70.1333 467.621 71C467.821 71.8667 468.054 73.4167 468.171 74.4167C468.288 75.5167 468.321 77.2333 468.271 78.75C468.221 80.1333 468.121 81.3833 468.071 81.55C467.988 81.8167 466.937 81.8333 429.879 81.8333L430.013 82.3667C430.08 82.6667 430.33 83.3667 430.547 83.9167C430.78 84.4667 431.214 85.3333 431.514 85.8333C431.797 86.3333 432.565 87.2667 433.215 87.9167C433.865 88.5667 434.899 89.4 435.55 89.7667C436.184 90.15 437.134 90.6 437.635 90.8C438.135 91 438.969 91.2667 439.469 91.4C439.969 91.55 441.02 91.7333 441.804 91.8333C442.588 91.9167 443.789 92 444.472 92C445.156 92 446.29 91.9167 446.974 91.8333C447.658 91.7333 448.708 91.5333 449.309 91.3833C449.909 91.2333 450.876 90.9167 451.477 90.6833C452.077 90.4333 453.128 89.9 453.812 89.4667C454.495 89.05 455.463 88.35 455.93 87.9333C456.413 87.5167 456.864 87.1667 456.93 87.1667C457.014 87.1667 458.765 89.0333 460.85 91.3333C462.951 93.6167 464.652 95.5333 464.652 95.5833C464.652 95.6333 464.452 95.9167 464.218 96.2167C463.985 96.5 463.285 97.1833 462.684 97.7333C462.067 98.2667 461.033 99.05 460.399 99.5C459.749 99.9333 458.632 100.583 457.898 100.95C457.164 101.317 456.03 101.817 455.396 102.05C454.746 102.3 453.512 102.683 452.644 102.9C451.777 103.133 450.276 103.433 449.309 103.583C448.342 103.733 446.474 103.9 445.139 103.95C443.688 104 441.921 103.967 440.72 103.85C439.619 103.733 437.818 103.467 436.717 103.25C435.617 103.033 433.899 102.583 432.881 102.25C431.864 101.917 430.296 101.283 429.379 100.833C428.462 100.4 427.144 99.6667 426.461 99.2167C425.777 98.7667 424.576 97.8667 423.792 97.2167C423.008 96.5667 421.908 95.4833 421.324 94.8C420.74 94.1333 419.906 93.0667 419.456 92.4167C419.022 91.7667 418.272 90.5 417.822 89.5833C417.355 88.6667 416.754 87.25 416.471 86.4167C416.204 85.5833 415.804 84.1333 415.587 83.1667C415.253 81.6167 415.22 80.95 415.22 77.5C415.22 74.1 415.253 73.3667 415.57 71.9167C415.77 71 416.221 69.4667 416.554 68.5C416.888 67.5333 417.471 66.1167 417.872 65.3333C418.255 64.55 419.056 63.2 419.639 62.3333C420.24 61.45 421.441 60 422.375 59.0667C423.292 58.1333 424.609 56.9667 425.293 56.45C425.977 55.95 427.228 55.15 428.045 54.6833C428.862 54.2167 430.296 53.5333 431.214 53.1667C432.131 52.8167 433.632 52.3333 434.549 52.0833C435.466 51.85 436.967 51.55 437.885 51.4167C439.035 51.25 440.52 51.2 442.638 51.25ZM437.051 63.3667C436.5 63.5667 435.516 64.0833 434.883 64.5167C434.232 64.9333 433.282 65.7667 432.748 66.35C432.131 67.0167 431.497 67.9833 431.03 68.9167C430.63 69.75 430.146 70.9833 429.98 71.6667L429.663 72.9167C448.792 72.9833 454.379 72.9833 454.412 72.9667C454.445 72.9333 454.345 72.45 454.229 71.8833C454.095 71.3 453.778 70.3667 453.545 69.8C453.311 69.2167 452.794 68.2667 452.394 67.6667C452.011 67.0667 451.243 66.1667 450.693 65.6667C450.143 65.1667 449.225 64.4667 448.625 64.1167C448.041 63.7667 446.957 63.3 446.223 63.05C445.106 62.7 444.522 62.6167 442.554 62.5667C440.92 62.5167 439.886 62.5833 439.135 62.75C438.535 62.8833 437.601 63.1667 437.051 63.3667ZM555.211 51.2C556.812 51.1833 558.863 51.2667 560.131 51.4167C561.315 51.5667 562.983 51.8333 563.8 52.0333C564.617 52.2167 565.935 52.6 566.718 52.8667C567.502 53.15 568.586 53.6 569.137 53.8667C569.687 54.15 570.621 54.6833 571.221 55.0667C571.822 55.45 572.856 56.2833 573.54 56.9333C574.223 57.5667 575.141 58.5667 575.591 59.1667C576.041 59.7667 576.825 61.0833 577.325 62.0833C577.826 63.1 578.409 64.6 578.643 65.4167C578.876 66.25 579.193 67.5167 579.343 68.25C579.593 69.4167 579.627 71.6333 579.727 103.167H566.051V100.25C566.051 98.65 566.001 97.3333 565.918 97.3333C565.851 97.3333 565.468 97.75 565.034 98.2833C564.617 98.8167 563.867 99.6 563.366 100.033C562.883 100.467 561.865 101.15 561.131 101.567C560.398 101.983 559.08 102.567 558.213 102.85C557.346 103.133 555.645 103.5 554.461 103.683C553.26 103.85 551.559 104 550.658 104C549.774 104 548.24 103.883 547.239 103.75C546.255 103.617 544.888 103.367 544.204 103.183C543.52 103.017 542.353 102.633 541.619 102.35C540.885 102.067 539.684 101.483 538.95 101.067C538.016 100.533 537.099 99.7667 535.948 98.6C534.564 97.2167 534.131 96.65 533.497 95.4167C533.08 94.5833 532.58 93.4333 532.396 92.8333C532.213 92.2333 531.979 91 531.862 90.0833C531.712 88.8 531.712 88.0167 531.862 86.6667C531.979 85.6333 532.263 84.2667 532.58 83.3333C532.896 82.3667 533.43 81.2667 533.93 80.5C534.381 79.8167 535.165 78.85 535.682 78.35C536.199 77.85 537.033 77.1667 537.533 76.8333C538.033 76.4833 538.934 75.9667 539.534 75.6667C540.135 75.3667 541.369 74.8833 542.286 74.5667C543.203 74.2667 544.821 73.8667 545.872 73.6833C546.922 73.4833 548.807 73.2667 550.041 73.1667C551.275 73.0833 555.161 73 565.051 73V72.3C565.051 71.9 564.934 71.0667 564.801 70.4167C564.667 69.7833 564.284 68.7 563.967 68.05C563.616 67.3333 563.049 66.5 562.549 66C562.082 65.55 561.365 64.9667 560.915 64.7167C560.481 64.4667 559.647 64.0833 559.047 63.8667C558.446 63.65 557.246 63.3667 556.378 63.2333C555.511 63.1167 554.194 63 553.46 63C552.726 63 551.342 63.1167 550.375 63.2333C549.407 63.3667 547.99 63.6333 547.206 63.8333C546.422 64.0333 545.154 64.4333 544.371 64.7333C543.587 65.0333 542.569 65.4833 542.119 65.7C541.652 65.9333 540.752 66.4833 540.118 66.9C539.467 67.3333 538.9 67.6167 538.834 67.55C538.767 67.4667 537.583 65.1833 536.199 62.4667C534.081 58.2667 533.73 57.45 533.897 57.2333C534.014 57.0833 534.798 56.5667 535.615 56.0833C536.432 55.6 537.8 54.9 538.617 54.5333C539.434 54.1667 540.902 53.6167 541.869 53.2833C542.836 52.9667 544.521 52.5 545.621 52.25C546.722 52.0167 548.407 51.7 549.374 51.5833C550.341 51.45 551.425 51.3167 551.792 51.2833C552.159 51.25 553.693 51.2167 555.211 51.2ZM551.042 82.1833C550.541 82.2833 549.741 82.5333 549.29 82.7333C548.823 82.9333 548.123 83.4 547.706 83.7833C547.273 84.1667 546.789 84.8333 546.555 85.35C546.238 86.0667 546.138 86.55 546.138 87.6667C546.122 88.9333 546.172 89.2 546.639 90.1667C546.956 90.8167 547.456 91.5 547.89 91.8833C548.29 92.2333 549.04 92.7167 549.541 92.95C550.041 93.1833 550.942 93.4833 551.542 93.6C552.142 93.7333 553.36 93.8333 554.244 93.8333C555.144 93.8333 556.462 93.7167 557.162 93.5667C557.879 93.4167 558.83 93.15 559.297 92.9667C559.747 92.7833 560.648 92.2833 561.282 91.8667C561.915 91.4333 562.766 90.7167 563.166 90.25C563.566 89.8 564.15 88.9 564.484 88.25L565.067 87.0833L565.051 81.8333C555.428 81.8667 552.476 81.9 552.292 81.9333C552.109 81.9667 551.542 82.0833 551.042 82.1833ZM114.658 4.81667L115.258 5.95C115.592 6.56667 118.46 12.1333 127.433 29.5L116.826 49.4667C110.989 60.4333 106.019 69.7667 105.769 70.2C105.535 70.6333 105.369 71.0167 105.419 71.0667C105.469 71.1 116.309 73.3167 129.518 75.9833C142.726 78.65 153.633 80.8667 153.733 80.9167C153.85 80.9667 156.418 85.9167 159.454 91.9167C162.472 97.9167 164.957 102.867 164.957 102.917C164.957 102.967 139.741 103 108.921 103C78.1008 103 52.851 102.95 52.8177 102.867C52.7843 102.8 58.9383 93 80.1855 59.4167L81.6698 59.3C82.8205 59.2 83.3875 59.0667 84.1881 58.6667C84.7718 58.4 85.639 57.8 86.106 57.35C86.5896 56.9 87.2067 56.1333 87.4735 55.65C87.7404 55.15 88.0572 54.3667 88.1907 53.9167C88.3074 53.45 88.4075 52.6667 88.4075 52.1667C88.4075 51.6667 88.3074 50.8667 88.174 50.4167C88.0573 49.95 87.8071 49.2833 87.2734 48.25L114.658 4.81667ZM255.516 28.1833C255.85 28.1667 256.55 28.25 257.1 28.35C257.651 28.45 258.535 28.75 259.068 29.0167C259.585 29.2833 260.386 29.8667 260.82 30.3167C261.253 30.7667 261.82 31.5333 262.054 32.0167C262.304 32.5167 262.637 33.3667 262.771 33.9167C262.904 34.4667 263.021 35.55 263.021 36.3333C263.021 37.1167 262.904 38.2333 262.771 38.8333C262.621 39.4333 262.22 40.4333 261.887 41.0667C261.553 41.7 260.92 42.55 260.486 42.95C260.052 43.35 259.219 43.9 258.651 44.1667C257.901 44.5333 257.251 44.7 256.35 44.7833C255.566 44.85 254.766 44.8 254.182 44.6667C253.682 44.55 252.898 44.2667 252.431 44.0333C251.98 43.8 251.23 43.2333 250.763 42.7667C250.296 42.3 249.679 41.4333 249.379 40.8333C249.095 40.2333 248.745 39.2333 248.595 38.5833C248.462 37.95 248.361 37 248.361 36.5C248.361 36 248.462 35.0667 248.595 34.4167C248.745 33.7833 249.095 32.7667 249.379 32.1667C249.679 31.5667 250.296 30.7167 250.763 30.25C251.23 29.7833 251.98 29.2333 252.431 29C252.898 28.7833 253.648 28.5167 254.099 28.4C254.565 28.2833 255.199 28.1833 255.516 28.1833ZM486.967 32.5167C487.133 32.5 487.167 39.6667 487.167 103.167H472.324V35.3333L472.707 35.25C472.907 35.2 476.16 34.5667 479.912 33.85C483.681 33.1167 486.85 32.5167 486.967 32.5167ZM187.305 36.5H242.674L242.691 46.4167L206.818 90.4167L240.423 90.5833L242.124 96.5C243.058 99.75 243.875 102.583 244.009 103.167H186.471V93.25L222.428 49.25L187.305 49.1667V36.5ZM300.212 51.1667V64.9167L298.427 64.8C297.443 64.7333 295.926 64.75 295.042 64.85C294.175 64.9333 293.007 65.1333 292.457 65.2667C291.906 65.4167 290.822 65.8333 290.039 66.2C288.905 66.75 288.371 67.15 287.287 68.2333C286.503 69.0333 285.719 70 285.419 70.5833C285.135 71.1333 284.735 72.0333 284.535 72.5833C284.352 73.1333 284.068 74.0667 283.918 74.6667C283.684 75.6167 283.634 77.5167 283.534 103.167H268.858V93.1667C268.858 86.6167 268.925 83.1667 269.025 83.1667C269.125 83.1667 269.609 82.7833 270.126 82.3C270.726 81.7333 271.26 81.0333 271.593 80.3333C272.027 79.4333 272.127 79.0333 272.177 77.8333C272.21 76.6667 272.16 76.2333 271.843 75.4167C271.643 74.8667 271.226 74.1167 270.943 73.75C270.659 73.3833 270.076 72.8167 268.858 71.9167V51.8333H282.867V58.5L284.085 57.2333C284.752 56.5333 285.736 55.6167 286.286 55.1833C286.836 54.7667 287.887 54.1167 288.621 53.7167C289.355 53.3333 290.489 52.8333 291.123 52.6C291.773 52.3833 292.79 52.0667 293.374 51.9167C293.974 51.7667 295.175 51.5333 296.042 51.4167C296.926 51.3 298.211 51.2 300.212 51.1667ZM248.345 52H263.021L263.004 72.0833L262.321 72.5833C261.937 72.8667 261.387 73.3833 261.103 73.75C260.82 74.1167 260.419 74.8667 260.202 75.4167C259.886 76.2667 259.836 76.65 259.902 77.9167C259.952 79.1833 260.052 79.5833 260.469 80.4167C260.803 81.0667 261.337 81.75 263.021 83.25V103.167H248.345V52Z" fill="#009B88"/>
</svg>