<svg width="348" height="214" viewBox="0 0 348 214" fill="none" xmlns="http://www.w3.org/2000/svg">
<path d="M184.303 100.244L213.105 55.1716C228.948 30.3884 241.948 10.1195 241.988 10.1295C242.038 10.1495 248.112 21.6202 255.488 35.6333C263.695 51.2279 268.879 61.1872 268.859 61.3073C268.839 61.4174 258.34 80.8956 245.53 104.598C232.72 128.3 222.282 147.718 222.322 147.748C222.362 147.788 245.41 152.392 273.542 157.998C301.674 163.593 324.702 168.197 324.732 168.227C324.757 168.253 328.508 175.58 333.531 185.393L336.421 191.039C342.816 203.56 348.03 213.84 348 213.9C347.97 213.97 308.439 214 229.708 214C164.678 214 111.446 213.97 111.416 213.93C111.396 213.88 124.467 193.451 169.562 123.165L170.112 123.215C170.412 123.245 171.273 123.265 172.013 123.265C172.864 123.255 173.735 123.185 174.365 123.075C174.916 122.975 175.816 122.745 176.367 122.565C176.917 122.384 177.798 122.034 178.318 121.774C178.839 121.514 179.629 121.063 180.07 120.763C180.51 120.473 181.221 119.942 181.651 119.592C182.081 119.241 182.652 118.691 182.912 118.361C183.182 118.03 183.652 117.4 183.973 116.959C184.283 116.519 184.813 115.618 185.134 114.957C185.454 114.297 185.834 113.396 185.974 112.956C186.114 112.515 186.295 111.825 186.375 111.424C186.455 111.034 186.575 110.243 186.635 109.672C186.695 109.112 186.715 108.221 186.685 107.701C186.645 107.18 186.545 106.319 186.465 105.799C186.375 105.278 186.134 104.327 185.924 103.697C185.724 103.066 185.364 102.186 185.144 101.745C184.913 101.305 184.633 100.784 184.303 100.244Z" fill="white"/>
<path d="M11.8292 22.8714C5.3542 10.4297 0.0300738 0.190178 5.04948e-05 0.130122C-0.0399805 0.0300281 23.7084 0 118.552 0C183.793 0 237.164 0.0300281 237.164 0.0800748C237.154 0.120112 223.954 20.7594 207.821 45.9429C191.679 71.1265 178.178 92.2162 177.117 93.8877L176.737 93.7476C176.537 93.6775 175.826 93.4874 175.166 93.3372C174.215 93.117 173.635 93.047 172.364 93.0169C171.033 92.9769 170.552 92.9969 169.511 93.1771C168.821 93.2972 167.79 93.5574 167.21 93.7476C166.629 93.9478 165.749 94.3081 165.258 94.5584C164.758 94.7986 163.977 95.259 163.507 95.5693C162.986 95.9096 162.166 96.6203 161.405 97.391C160.645 98.1517 159.924 98.9725 159.584 99.493C159.274 99.9634 158.813 100.744 158.573 101.245C158.323 101.745 157.983 102.546 157.802 103.046C157.632 103.547 157.392 104.398 157.282 104.948C157.102 105.769 157.062 106.289 157.052 107.901C157.052 109.602 157.082 109.993 157.292 110.904C157.422 111.484 157.642 112.295 157.772 112.705C157.912 113.116 158.193 113.816 158.393 114.257C158.603 114.697 159.013 115.438 159.314 115.908C159.604 116.379 160.194 117.159 161.365 118.561L133.934 161.421C118.852 184.993 106.463 204.281 106.413 204.291C106.353 204.301 100.378 192.93 93.1323 179.007C85.8867 165.084 79.952 153.644 79.942 153.594C79.942 153.544 90.4602 133.945 103.31 110.053C116.16 86.1605 126.668 66.6022 126.648 66.5922C126.638 66.5922 103.46 61.8478 75.1383 56.0524C46.8163 50.267 23.6384 45.5225 23.6284 45.5125C23.6184 45.5025 18.3143 35.313 11.8292 22.8714Z" fill="white"/>
</svg>